HIERARCHY
ROOT Hips
{
  OFFSET 211.017 103.093 -213.85
  CHANNELS 6 Xposition Yposition Zposition Zrotation Xrotation Yrotation
  JOINT ToSpine
  {
    OFFSET -2.69724 7.43032 -0.144315
    CHANNELS 3 Zrotation Xrotation Yrotation
    JOINT Spine
    {
      OFFSET -0.0310711 10.7595 1.96963
      CHANNELS 3 Zrotation Xrotation Yrotation
      JOINT Spine1
      {
        OFFSET 19.9056 3.91189 0.764692
        CHANNELS 3 Zrotation Xrotation Yrotation
        JOINT Neck
        {
          OFFSET 25.9749 7.03908 -0.130764
          CHANNELS 3 Zrotation Xrotation Yrotation
          JOINT Head
          {
            OFFSET 9.52751 0.295786 -0.907742
            CHANNELS 3 Zrotation Xrotation Yrotation
            End Site
            {
              OFFSET 16.4037 0.713936 2.7358
            }
          }
        }
        JOINT LeftShoulder
        {
          OFFSET 17.7449 4.33886 11.7777
          CHANNELS 3 Zrotation Xrotation Yrotation
          JOINT LeftArm
          {
            OFFSET 0.911315 1.27913 9.80584
            CHANNELS 3 Zrotation Xrotation Yrotation
            JOINT LeftForeArm
            {
              OFFSET 28.6126 1.18197 -3.53199
              CHANNELS 3 Zrotation Xrotation Yrotation
              JOINT LeftHand
              {
                OFFSET 27.5088 0.0218783 0.327423
                CHANNELS 3 Zrotation Xrotation Yrotation
                End Site
                {
                  OFFSET 18.6038 -0.000155887 0.382096
                }
              }
            }
          }
        }
        JOINT RightShoulder
        {
          OFFSET 17.1009 2.89543 -12.2328
          CHANNELS 3 Zrotation Xrotation Yrotation
          JOINT RightArm
          {
            OFFSET 1.4228 0.178766 -10.211
            CHANNELS 3 Zrotation Xrotation Yrotation
            JOINT RightForeArm
            {
              OFFSET 28.733 1.87905 2.64907
              CHANNELS 3 Zrotation Xrotation Yrotation
              JOINT RightHand
              {
                OFFSET 27.4588 0.290562 -0.101845
                CHANNELS 3 Zrotation Xrotation Yrotation
                End Site
                {
                  OFFSET 17.8396 -0.255518 -0.000602873
                }
              }
            }
          }
        }
      }
    }
  }
  JOINT LeftUpLeg
  {
    OFFSET -5.61296 -2.22332 -10.2353
    CHANNELS 3 Zrotation Xrotation Yrotation
    JOINT LeftLeg
    {
      OFFSET 2.56703 -44.7417 -7.93097
      CHANNELS 3 Zrotation Xrotation Yrotation
      JOINT LeftFoot
      {
        OFFSET 3.16933 -46.5642 -3.96578
        CHANNELS 3 Zrotation Xrotation Yrotation
        JOINT LeftToeBase
        {
          OFFSET 0.346054 -6.02161 12.8035
          CHANNELS 3 Zrotation Xrotation Yrotation
          End Site
          {
            OFFSET 0.134235 -1.35082 5.13018
          }
        }
      }
    }
  }
  JOINT RightUpLeg
  {
    OFFSET -5.7928 -1.72406 10.6446
    CHANNELS 3 Zrotation Xrotation Yrotation
    JOINT RightLeg
    {
      OFFSET -2.57161 -44.7178 -7.85259
      CHANNELS 3 Zrotation Xrotation Yrotation
      JOINT RightFoot
      {
        OFFSET -3.10148 -46.5936 -4.03391
        CHANNELS 3 Zrotation Xrotation Yrotation
        JOINT RightToeBase
        {
          OFFSET -0.0828122 -6.13587 12.8035
          CHANNELS 3 Zrotation Xrotation Yrotation
          End Site
          {
            OFFSET -0.131328 -1.35082 5.13018
          }
        }
      }
    }
  }
}
MOTION
Frames:	15
Frame Time:	0.0333333
-253.792 88.4842 247.996 69.1372 41.125 26.3395 -70.1915 0 88.8779 124.066 67.3384 -24.5518 9.65521 20.68 5.20919 -168.874 17.0288 177.308 -149.941 53.6719 164.218 2.6727 1.55383 -25.3647 -48.6048 38.5537 -110.136 12.6925 13.5547 -38.2254 13.8615 -0.865186 -5.29572 0.380349 -1.53098 26.473 -72.0017 -51.9776 94.4345 8.24781 -5.24475 47.5357 8.39894 0.202809 2.61721 -36.4119 4.12472 73.9611 -171.22 43.7293 167.379 4.94087 10.521 -0.404527 -5.81687 -20.172 13.0316 -33.9043 18.0226 72.3171 6.41443 63.3859 4.75449 -6.66223 -6.74032 1.06934 11.2828 -18.8568 -22.2122 
-243.888 88.3958 236.873 68.5763 38.3521 26.883 -70.1915 0 88.8779 125.243 68.7913 -23.6082 6.35327 22.3591 5.71838 -166.366 17.3822 175.506 -148.433 53.3864 162.589 2.80842 2.05006 -25.9863 -36.1657 39.036 -115.372 13.4438 19.7282 -30.1116 13.0224 -1.18928 -8.49243 0.429443 -1.94433 25.9397 -69.3755 -49.7017 101.08 10.6473 -6.0003 54.3743 7.63613 0.250236 3.71545 -23.187 1.37863 72.4013 -171.258 49.5392 171.724 4.85038 10.8774 -0.375004 -6.58042 -25.3517 14.5899 -45.3837 19.9296 75.5999 6.09451 60.4516 7.96007 -8.46604 -11.1308 1.17374 11.4195 -21.9804 -19.6776 
-232.699 89.9184 225.218 66.9503 35.1633 24.4717 -70.1915 0 88.8779 118.302 72.3128 -18.4904 2.31957 24.1463 6.33899 -163.499 18.0187 174.921 -149.294 54.3223 163.593 2.85346 2.58068 -25.7174 -26.7794 41.2688 -117.585 12.648 20.5272 -27.3041 15.8746 -1.63036 -9.75891 0.403968 -1.84224 24.8728 -67.0565 -49.1324 102.784 11.9472 -5.15505 63.0575 9.15311 0.206833 2.40707 -14.0767 0.452613 76.6985 -169.942 63.4492 174.762 5.86808 7.43611 -0.663685 -6.604 -25.4105 19.0761 -59.0131 18.3892 82.6587 4.23351 52.4426 8.49874 -9.64407 -16.0115 1.13999 8.43655 -11.0396 -16.556 
-221.719 93.5394 213.984 65.6128 34.2724 21.5082 -70.1915 0 88.8779 109.087 75.1132 -10.6294 1.81645 25.8958 2.38543 -163.08 18.9483 172.785 -150.593 55.3711 162.655 2.58382 1.806 -24.2058 -20.6918 43.8612 -117.72 10.28 15.2551 -28.0322 15.155 -1.11461 -6.53159 0.494549 -2.58979 24.8985 -67.1905 -50.2495 100.207 12.1654 -3.91752 70.5189 8.39817 0.359742 4.92462 -11.2271 -2.2165 80.4913 -148.644 83.2924 150.867 4.45828 6.38315 -0.439007 -6.34607 -23.5591 14.7754 -72.2048 8.55054 76.3533 2.35672 40.6584 11.9029 -6.76296 -13.4448 1.16183 -8.68514 14.8395 7.65422 
-211.425 96.7961 203.895 63.8047 33.9167 20.0549 -70.1915 0 88.8779 94.0569 76.854 2.99254 3.80086 26.944 -0.885069 -161.727 20.1073 172.263 -152.04 57.1349 164.934 2.40099 0.757633 -23.6943 -19.3293 45.6044 -115.382 9.74208 12.9001 -30.4793 14.6632 -0.947892 -5.54361 0.578108 -3.36005 24.5163 -66.5216 -51.1811 98.3722 12.7791 -3.34852 74.9472 9.39434 0.540297 6.67174 -12.0432 -4.43942 81.623 -7.44226 71.0036 5.98498 3.12195 4.73452 -0.278117 -5.96819 -21.7027 11.2801 -80.1551 4.6266 76.4439 1.34524 34.63 11.0669 -5.78717 -5.23589 0.98206 -10.4593 33.4062 0.400178 
-202.285 98.3986 195.267 65.4038 32.5157 16.7363 -70.1915 0 88.8779 93.9612 77.9737 0.323858 5.44319 27.5678 -2.68542 -160.457 20.0303 172.237 -151.098 56.9913 165.518 2.3548 0.439537 -23.618 -20.2657 47.5356 -112.806 10.1743 12.6744 -32.4132 15.053 -1.05469 -6.14529 0.580463 -3.44069 24.2378 -63.3167 -50.9305 99.3737 13.1036 -3.29701 75.7287 9.32083 0.506151 6.28372 -16.931 -4.13099 82.616 -2.05105 47.2257 0.640075 2.15734 7.99401 0.0485979 -6.17319 -22.6698 12.8673 -82.9547 4.06045 86.2841 1.87736 43.8309 1.45959 -4.74106 2.20866 0.678916 -2.87638 21.5408 -7.06352 
-193.193 99.0838 186.485 69.6267 30.6406 11.9032 -70.1915 0 88.8779 99.6617 78.7299 -9.22411 8.14386 27.8145 -2.78445 -161.75 19.0025 172.578 -150.9 55.6246 163.796 2.36317 0.247444 -23.9615 -22.3875 47.9871 -112.119 11.1723 14.2478 -32.4747 16.8925 -1.17387 -6.08021 0.51982 -2.91821 24.2107 -61.5894 -50.4 99.1991 13.4077 -3.83252 73.2827 9.10963 0.560097 7.17384 -23.9659 -2.16314 87.2266 -1.04558 32.8362 0.375242 2.49754 11.6203 0.163735 -6.00584 -21.433 13.2087 -83.0888 2.46348 92.5116 4.28725 63.0514 -2.94737 -4.57164 -0.960689 0.754193 -6.79801 28.244 -3.19177 
-183.702 97.4291 177.497 72.2314 30.8121 10.2586 -70.1915 0 88.8779 102.704 78.0907 -14.1999 9.58689 26.8353 -2.81477 -159.775 18.9383 171.757 -147.045 54.9011 163.565 2.35058 0.948932 -22.9457 -24.2307 45.2939 -113.687 10.0213 12.4478 -32.3745 14.8009 -1.36431 -8.59408 0.531581 -2.91254 24.8049 -62.2137 -51.4359 95.5365 13.7678 -4.69433 69.5438 9.30669 0.544595 6.79924 -26.1466 -0.361464 94.8655 -1.47971 36.1743 -1.40348 0.818899 10.5056 0.46205 -5.80465 -19.576 14.258 -80.0801 3.70118 94.9038 30.9329 84.2285 -31.1298 -4.95086 1.50941 0.728001 -6.12534 24.3807 -2.53951 
-174.33 93.9781 168.411 73.0115 36.2306 10.1266 -70.1915 0 88.8779 104.874 75.4849 -19.6498 8.79654 23.7777 -1.04187 -160.501 18.3131 171.734 -149.623 54.7812 164.855 2.50276 1.03869 -24.37 -29.9566 38.8116 -113.131 9.22741 11.5991 -31.4013 14.6756 -1.1826 -7.3108 0.576204 -3.21555 25.1551 -65.1607 -53.1992 88.5482 13.477 -5.53344 64.9562 10.1399 0.446306 4.99319 -26.5421 -4.86039 95.6895 -2.76134 49.3435 -2.55751 4.89019 12.4279 -0.338343 -5.9419 -21.2418 12.374 -75.1274 2.69733 90.1523 164.901 75.0212 -168.134 -6.0051 3.37606 0.834808 -1.81856 15.1294 -5.97001 
-165.173 91.2386 159.107 73.5148 39.5711 8.1425 -70.1915 0 88.8779 101.139 73.6959 -19.9753 9.43603 21.9506 -0.823983 -161.285 17.7682 170.958 -150.019 54.4036 166.501 2.75138 1.62 -26.0269 -38.7797 32.5538 -115.457 8.07232 11.525 -27.0292 16.4986 -0.970455 -4.89528 0.624141 -3.27461 26.8373 -67.2123 -53.3689 84.7014 13.8447 -7.63969 56.9597 11.7665 0.541385 5.18152 -28.4308 -10.1137 96.6281 -4.05079 61.0639 3.06189 10.6248 16.8872 -1.72269 -10.0379 -41.1353 7.39884 -65.568 -0.588192 89.441 170.266 59.6524 -172.254 -7.20689 0.707455 1.03891 0.556473 11.6038 -9.0878 
-157.08 90.5471 150.515 73.5972 42.4061 5.58573 -70.1915 0 88.8779 99.2416 72.2302 -22.1124 9.56621 20.3557 -1.10245 -161.842 17.4954 171.409 -152.035 54.6 168.247 2.77541 1.20101 -26.8529 -50.5731 31.0333 -118.851 6.81378 10.9319 -22.7497 16.5911 -0.885944 -4.29219 0.612832 -3.15088 27.0869 -67.6322 -54.3917 83.7079 13.8381 -10.5291 47.3119 12.1303 0.0326599 -0.0408375 -34.1711 -14.6426 97.5531 -5.77007 65.4793 2.53077 7.91092 12.9838 -1.01982 -11.461 -45.0819 5.26263 -49.3658 -2.16709 92.9582 170.811 51.1339 -168.311 -6.86714 -0.723816 1.01204 2.31754 7.6069 -10.9211 
-147.491 90.9671 141.339 74.6604 43.612 4.76259 -70.1915 0 88.8779 101.207 71.3496 -25.3733 7.50183 19.1448 -0.0534557 -160.268 17.5611 172.028 -151.493 54.3576 165.675 2.7877 1.27761 -26.8605 -64.6025 35.9767 -116.711 7.504 10.1328 -27.6996 19.463 -0.88372 -3.3941 0.591346 -3.05774 26.7091 -64.3745 -55.7399 84.1117 12.7837 -12.2579 39.6634 11.522 0.0261725 -0.0909025 -44.9526 -15.1886 97.0792 -6.48234 65.1602 -0.276294 8.86835 12.3773 -1.23807 -13.4128 -50.6908 4.06794 -35.5449 -0.560858 94.5893 170.449 55.3445 -168.941 -5.88815 -0.91637 0.902788 5.80035 0.725221 -15.928 
-137.123 93.1672 131.044 75.2628 45.6786 6.55339 -70.1915 0 88.8779 98.271 70.3186 -21.33 6.33815 17.4077 2.07483 -158.332 17.4025 173.16 -151.152 54.0009 164.22 2.8548 1.44092 -27.27 -69.1403 39.1472 -116.449 7.08124 6.87417 -35.9657 18.67 -0.858764 -3.46275 0.543603 -2.86337 25.6797 -61.8872 -56.8649 83.2555 11.5641 -12.7954 34.5957 7.61355 -0.0112349 -0.552134 -57.6002 -14.6933 92.6037 -5.99643 61.7672 -4.2026 7.03742 5.1378 -0.903819 -9.66529 -40.7514 9.14643 -28.3175 0.371059 92.0603 167.217 70.4749 -168.796 -6.83954 -1.91609 1.02298 7.98423 -3.89481 -19.7063 
-127.188 96.518 120.645 74.5952 48.2371 9.45698 -70.1915 0 88.8779 93.4921 68.5967 -15.0971 5.78154 15.8014 4.33366 -156.272 17.2404 173.572 -150.148 53.5473 163.249 2.89152 1.78303 -27.1209 -68.432 40.2358 -116.349 10.3066 7.96321 -46.2762 15.3 -0.89331 -4.84848 0.538242 -2.8899 25.2577 -57.214 -57.4263 84.0584 12.2117 -15.9152 30.7133 7.20288 0.00872734 -0.216723 -68.0839 -12.0567 89.2781 -4.50702 55.7629 -6.03078 3.74735 2.31591 -0.473471 -5.9873 -22.1113 9.96394 -25.9796 0.248756 89.1207 47.3961 85.8533 -47.6481 -6.44149 -3.75814 1.00933 7.2793 -1.26927 -19.002 
-117.481 99.6854 110.728 72.988 49.6834 12.8048 -70.1915 0 88.8779 88.8919 67.4859 -9.24084 5.19746 14.8373 6.32478 -154.207 16.8885 172.89 -151.366 53.3198 162.466 2.86639 2.01644 -26.5634 -64.8319 38.9588 -114.76 16.4507 8.44531 -60.3434 13.752 -1.00733 -6.4966 0.557878 -3.07745 25.0958 -54.271 -57.8398 82.6217 12.5866 -17.7883 28.9423 6.5499 0.079294 1.16282 -74.5127 -8.49055 87.1208 -3.68667 51.6897 -6.36316 2.33835 4.55955 -0.160769 -5.34705 -16.3361 13.838 -27.8711 1.37159 87.2799 3.70352 59.9229 -1.34965 -5.06038 -3.79815 0.887054 3.2478 5.7939 -12.1499 
